<svg width="143" height="129" viewBox="0 0 143 129" fill="none" xmlns="http://www.w3.org/2000/svg">
<g opacity="0.3">
<mask id="mask0" mask-type="alpha" maskUnits="userSpaceOnUse" x="0" y="0" width="12" height="13">
<path d="M5.65734 12.3157C8.7818 12.3157 11.3147 9.71904 11.3147 6.51597C11.3147 3.3129 8.7818 0.716309 5.65734 0.716309C2.53287 0.716309 0 3.3129 0 6.51597C0 9.71904 2.53287 12.3157 5.65734 12.3157Z" fill="url(#paint0_linear)"/>
</mask>
<g mask="url(#mask0)">
<path d="M5.65734 12.3157C8.7818 12.3157 11.3147 9.71904 11.3147 6.51597C11.3147 3.3129 8.7818 0.716309 5.65734 0.716309C2.53287 0.716309 0 3.3129 0 6.51597C0 9.71904 2.53287 12.3157 5.65734 12.3157Z" fill="url(#paint1_linear)"/>
</g>
<mask id="mask1" mask-type="alpha" maskUnits="userSpaceOnUse" x="32" y="0" width="13" height="13">
<path d="M38.4228 12.3157C41.5473 12.3157 44.0801 9.71904 44.0801 6.51597C44.0801 3.3129 41.5473 0.716309 38.4228 0.716309C35.2983 0.716309 32.7654 3.3129 32.7654 6.51597C32.7654 9.71904 35.2983 12.3157 38.4228 12.3157Z" fill="url(#paint2_linear)"/>
</mask>
<g mask="url(#mask1)">
<path d="M38.4228 12.3157C41.5473 12.3157 44.0801 9.71904 44.0801 6.51597C44.0801 3.3129 41.5473 0.716309 38.4228 0.716309C35.2983 0.716309 32.7654 3.3129 32.7654 6.51597C32.7654 9.71904 35.2983 12.3157 38.4228 12.3157Z" fill="url(#paint3_linear)"/>
</g>
<mask id="mask2" mask-type="alpha" maskUnits="userSpaceOnUse" x="65" y="0" width="12" height="13">
<path d="M71.1882 12.3157C74.3127 12.3157 76.8456 9.71904 76.8456 6.51597C76.8456 3.3129 74.3127 0.716309 71.1882 0.716309C68.0638 0.716309 65.5309 3.3129 65.5309 6.51597C65.5309 9.71904 68.0638 12.3157 71.1882 12.3157Z" fill="url(#paint4_linear)"/>
</mask>
<g mask="url(#mask2)">
<path d="M71.1882 12.3157C74.3127 12.3157 76.8456 9.71904 76.8456 6.51597C76.8456 3.3129 74.3127 0.716309 71.1882 0.716309C68.0638 0.716309 65.5309 3.3129 65.5309 6.51597C65.5309 9.71904 68.0638 12.3157 71.1882 12.3157Z" fill="url(#paint5_linear)"/>
</g>
<mask id="mask3" mask-type="alpha" maskUnits="userSpaceOnUse" x="98" y="0" width="12" height="13">
<path d="M103.954 12.3157C107.078 12.3157 109.611 9.71904 109.611 6.51597C109.611 3.3129 107.078 0.716309 103.954 0.716309C100.829 0.716309 98.2964 3.3129 98.2964 6.51597C98.2964 9.71904 100.829 12.3157 103.954 12.3157Z" fill="url(#paint6_linear)"/>
</mask>
<g mask="url(#mask3)">
<path d="M103.954 12.3157C107.078 12.3157 109.611 9.71904 109.611 6.51597C109.611 3.3129 107.078 0.716309 103.954 0.716309C100.829 0.716309 98.2964 3.3129 98.2964 6.51597C98.2964 9.71904 100.829 12.3157 103.954 12.3157Z" fill="url(#paint7_linear)"/>
</g>
<mask id="mask4" mask-type="alpha" maskUnits="userSpaceOnUse" x="131" y="0" width="12" height="13">
<path d="M136.719 12.3157C139.844 12.3157 142.376 9.71904 142.376 6.51597C142.376 3.3129 139.844 0.716309 136.719 0.716309C133.595 0.716309 131.062 3.3129 131.062 6.51597C131.062 9.71904 133.595 12.3157 136.719 12.3157Z" fill="url(#paint8_linear)"/>
</mask>
<g mask="url(#mask4)">
<path d="M136.719 12.3157C139.844 12.3157 142.376 9.71904 142.376 6.51597C142.376 3.3129 139.844 0.716309 136.719 0.716309C133.595 0.716309 131.062 3.3129 131.062 6.51597C131.062 9.71904 133.595 12.3157 136.719 12.3157Z" fill="url(#paint9_linear)"/>
</g>
<mask id="mask5" mask-type="alpha" maskUnits="userSpaceOnUse" x="0" y="29" width="12" height="13">
<path d="M5.65734 41.4349C8.7818 41.4349 11.3147 38.8383 11.3147 35.6352C11.3147 32.4322 8.7818 29.8356 5.65734 29.8356C2.53287 29.8356 0 32.4322 0 35.6352C0 38.8383 2.53287 41.4349 5.65734 41.4349Z" fill="url(#paint10_linear)"/>
</mask>
<g mask="url(#mask5)">
<path d="M5.65734 41.4349C8.7818 41.4349 11.3147 38.8383 11.3147 35.6352C11.3147 32.4322 8.7818 29.8356 5.65734 29.8356C2.53287 29.8356 0 32.4322 0 35.6352C0 38.8383 2.53287 41.4349 5.65734 41.4349Z" fill="url(#paint11_linear)"/>
</g>
<mask id="mask6" mask-type="alpha" maskUnits="userSpaceOnUse" x="32" y="29" width="13" height="13">
<path d="M38.4228 41.4349C41.5473 41.4349 44.0801 38.8383 44.0801 35.6352C44.0801 32.4322 41.5473 29.8356 38.4228 29.8356C35.2983 29.8356 32.7654 32.4322 32.7654 35.6352C32.7654 38.8383 35.2983 41.4349 38.4228 41.4349Z" fill="url(#paint12_linear)"/>
</mask>
<g mask="url(#mask6)">
<path d="M38.4228 41.4349C41.5473 41.4349 44.0801 38.8383 44.0801 35.6352C44.0801 32.4322 41.5473 29.8356 38.4228 29.8356C35.2983 29.8356 32.7654 32.4322 32.7654 35.6352C32.7654 38.8383 35.2983 41.4349 38.4228 41.4349Z" fill="url(#paint13_linear)"/>
</g>
<mask id="mask7" mask-type="alpha" maskUnits="userSpaceOnUse" x="65" y="29" width="12" height="13">
<path d="M71.1882 41.4349C74.3127 41.4349 76.8456 38.8383 76.8456 35.6352C76.8456 32.4322 74.3127 29.8356 71.1882 29.8356C68.0638 29.8356 65.5309 32.4322 65.5309 35.6352C65.5309 38.8383 68.0638 41.4349 71.1882 41.4349Z" fill="url(#paint14_linear)"/>
</mask>
<g mask="url(#mask7)">
<path d="M71.1882 41.4349C74.3127 41.4349 76.8456 38.8383 76.8456 35.6352C76.8456 32.4322 74.3127 29.8356 71.1882 29.8356C68.0638 29.8356 65.5309 32.4322 65.5309 35.6352C65.5309 38.8383 68.0638 41.4349 71.1882 41.4349Z" fill="url(#paint15_linear)"/>
</g>
<mask id="mask8" mask-type="alpha" maskUnits="userSpaceOnUse" x="98" y="29" width="12" height="13">
<path d="M103.954 41.4349C107.078 41.4349 109.611 38.8383 109.611 35.6352C109.611 32.4322 107.078 29.8356 103.954 29.8356C100.829 29.8356 98.2964 32.4322 98.2964 35.6352C98.2964 38.8383 100.829 41.4349 103.954 41.4349Z" fill="url(#paint16_linear)"/>
</mask>
<g mask="url(#mask8)">
<path d="M103.954 41.4349C107.078 41.4349 109.611 38.8383 109.611 35.6352C109.611 32.4322 107.078 29.8356 103.954 29.8356C100.829 29.8356 98.2964 32.4322 98.2964 35.6352C98.2964 38.8383 100.829 41.4349 103.954 41.4349Z" fill="url(#paint17_linear)"/>
</g>
<mask id="mask9" mask-type="alpha" maskUnits="userSpaceOnUse" x="131" y="29" width="12" height="13">
<path d="M136.719 41.4349C139.844 41.4349 142.376 38.8383 142.376 35.6352C142.376 32.4322 139.844 29.8356 136.719 29.8356C133.595 29.8356 131.062 32.4322 131.062 35.6352C131.062 38.8383 133.595 41.4349 136.719 41.4349Z" fill="url(#paint18_linear)"/>
</mask>
<g mask="url(#mask9)">
<path d="M136.719 41.4349C139.844 41.4349 142.376 38.8383 142.376 35.6352C142.376 32.4322 139.844 29.8356 136.719 29.8356C133.595 29.8356 131.062 32.4322 131.062 35.6352C131.062 38.8383 133.595 41.4349 136.719 41.4349Z" fill="url(#paint19_linear)"/>
</g>
<mask id="mask10" mask-type="alpha" maskUnits="userSpaceOnUse" x="0" y="58" width="12" height="13">
<path d="M5.65734 70.4937C8.7818 70.4937 11.3147 67.8971 11.3147 64.694C11.3147 61.4909 8.7818 58.8943 5.65734 58.8943C2.53287 58.8943 0 61.4909 0 64.694C0 67.8971 2.53287 70.4937 5.65734 70.4937Z" fill="url(#paint20_linear)"/>
</mask>
<g mask="url(#mask10)">
<path d="M5.65734 70.4937C8.7818 70.4937 11.3147 67.8971 11.3147 64.694C11.3147 61.4909 8.7818 58.8943 5.65734 58.8943C2.53287 58.8943 0 61.4909 0 64.694C0 67.8971 2.53287 70.4937 5.65734 70.4937Z" fill="url(#paint21_linear)"/>
</g>
<mask id="mask11" mask-type="alpha" maskUnits="userSpaceOnUse" x="32" y="58" width="13" height="13">
<path d="M38.4228 70.4937C41.5473 70.4937 44.0801 67.8971 44.0801 64.694C44.0801 61.4909 41.5473 58.8943 38.4228 58.8943C35.2983 58.8943 32.7654 61.4909 32.7654 64.694C32.7654 67.8971 35.2983 70.4937 38.4228 70.4937Z" fill="url(#paint22_linear)"/>
</mask>
<g mask="url(#mask11)">
<path d="M38.4228 70.4937C41.5473 70.4937 44.0801 67.8971 44.0801 64.694C44.0801 61.4909 41.5473 58.8943 38.4228 58.8943C35.2983 58.8943 32.7654 61.4909 32.7654 64.694C32.7654 67.8971 35.2983 70.4937 38.4228 70.4937Z" fill="url(#paint23_linear)"/>
</g>
<mask id="mask12" mask-type="alpha" maskUnits="userSpaceOnUse" x="65" y="58" width="12" height="13">
<path d="M71.1882 70.4937C74.3127 70.4937 76.8456 67.8971 76.8456 64.694C76.8456 61.4909 74.3127 58.8943 71.1882 58.8943C68.0638 58.8943 65.5309 61.4909 65.5309 64.694C65.5309 67.8971 68.0638 70.4937 71.1882 70.4937Z" fill="url(#paint24_linear)"/>
</mask>
<g mask="url(#mask12)">
<path d="M71.1882 70.4937C74.3127 70.4937 76.8456 67.8971 76.8456 64.694C76.8456 61.4909 74.3127 58.8943 71.1882 58.8943C68.0638 58.8943 65.5309 61.4909 65.5309 64.694C65.5309 67.8971 68.0638 70.4937 71.1882 70.4937Z" fill="url(#paint25_linear)"/>
</g>
<mask id="mask13" mask-type="alpha" maskUnits="userSpaceOnUse" x="98" y="58" width="12" height="13">
<path d="M103.954 70.4937C107.078 70.4937 109.611 67.8971 109.611 64.694C109.611 61.4909 107.078 58.8943 103.954 58.8943C100.829 58.8943 98.2964 61.4909 98.2964 64.694C98.2964 67.8971 100.829 70.4937 103.954 70.4937Z" fill="url(#paint26_linear)"/>
</mask>
<g mask="url(#mask13)">
<path d="M103.954 70.4937C107.078 70.4937 109.611 67.8971 109.611 64.694C109.611 61.4909 107.078 58.8943 103.954 58.8943C100.829 58.8943 98.2964 61.4909 98.2964 64.694C98.2964 67.8971 100.829 70.4937 103.954 70.4937Z" fill="url(#paint27_linear)"/>
</g>
<mask id="mask14" mask-type="alpha" maskUnits="userSpaceOnUse" x="131" y="58" width="12" height="13">
<path d="M136.719 70.4937C139.844 70.4937 142.376 67.8971 142.376 64.694C142.376 61.4909 139.844 58.8943 136.719 58.8943C133.595 58.8943 131.062 61.4909 131.062 64.694C131.062 67.8971 133.595 70.4937 136.719 70.4937Z" fill="url(#paint28_linear)"/>
</mask>
<g mask="url(#mask14)">
<path d="M136.719 70.4937C139.844 70.4937 142.376 67.8971 142.376 64.694C142.376 61.4909 139.844 58.8943 136.719 58.8943C133.595 58.8943 131.062 61.4909 131.062 64.694C131.062 67.8971 133.595 70.4937 136.719 70.4937Z" fill="url(#paint29_linear)"/>
</g>
<mask id="mask15" mask-type="alpha" maskUnits="userSpaceOnUse" x="0" y="88" width="12" height="12">
<path d="M5.65734 99.6129C8.7818 99.6129 11.3147 97.0163 11.3147 93.8132C11.3147 90.6101 8.7818 88.0135 5.65734 88.0135C2.53287 88.0135 0 90.6101 0 93.8132C0 97.0163 2.53287 99.6129 5.65734 99.6129Z" fill="url(#paint30_linear)"/>
</mask>
<g mask="url(#mask15)">
<path d="M5.65734 99.6129C8.7818 99.6129 11.3147 97.0163 11.3147 93.8132C11.3147 90.6101 8.7818 88.0135 5.65734 88.0135C2.53287 88.0135 0 90.6101 0 93.8132C0 97.0163 2.53287 99.6129 5.65734 99.6129Z" fill="url(#paint31_linear)"/>
</g>
<mask id="mask16" mask-type="alpha" maskUnits="userSpaceOnUse" x="32" y="88" width="13" height="12">
<path d="M38.4228 99.6129C41.5473 99.6129 44.0801 97.0163 44.0801 93.8132C44.0801 90.6101 41.5473 88.0135 38.4228 88.0135C35.2983 88.0135 32.7654 90.6101 32.7654 93.8132C32.7654 97.0163 35.2983 99.6129 38.4228 99.6129Z" fill="url(#paint32_linear)"/>
</mask>
<g mask="url(#mask16)">
<path d="M38.4228 99.6129C41.5473 99.6129 44.0801 97.0163 44.0801 93.8132C44.0801 90.6101 41.5473 88.0135 38.4228 88.0135C35.2983 88.0135 32.7654 90.6101 32.7654 93.8132C32.7654 97.0163 35.2983 99.6129 38.4228 99.6129Z" fill="url(#paint33_linear)"/>
</g>
<mask id="mask17" mask-type="alpha" maskUnits="userSpaceOnUse" x="65" y="88" width="12" height="12">
<path d="M71.1882 99.6129C74.3127 99.6129 76.8456 97.0163 76.8456 93.8132C76.8456 90.6101 74.3127 88.0135 71.1882 88.0135C68.0638 88.0135 65.5309 90.6101 65.5309 93.8132C65.5309 97.0163 68.0638 99.6129 71.1882 99.6129Z" fill="url(#paint34_linear)"/>
</mask>
<g mask="url(#mask17)">
<path d="M71.1882 99.6129C74.3127 99.6129 76.8456 97.0163 76.8456 93.8132C76.8456 90.6101 74.3127 88.0135 71.1882 88.0135C68.0638 88.0135 65.5309 90.6101 65.5309 93.8132C65.5309 97.0163 68.0638 99.6129 71.1882 99.6129Z" fill="url(#paint35_linear)"/>
</g>
<mask id="mask18" mask-type="alpha" maskUnits="userSpaceOnUse" x="98" y="88" width="12" height="12">
<path d="M103.954 99.6129C107.078 99.6129 109.611 97.0163 109.611 93.8132C109.611 90.6101 107.078 88.0135 103.954 88.0135C100.829 88.0135 98.2964 90.6101 98.2964 93.8132C98.2964 97.0163 100.829 99.6129 103.954 99.6129Z" fill="url(#paint36_linear)"/>
</mask>
<g mask="url(#mask18)">
<path d="M103.954 99.6129C107.078 99.6129 109.611 97.0163 109.611 93.8132C109.611 90.6101 107.078 88.0135 103.954 88.0135C100.829 88.0135 98.2964 90.6101 98.2964 93.8132C98.2964 97.0163 100.829 99.6129 103.954 99.6129Z" fill="url(#paint37_linear)"/>
</g>
<mask id="mask19" mask-type="alpha" maskUnits="userSpaceOnUse" x="131" y="88" width="12" height="12">
<path d="M136.719 99.6129C139.844 99.6129 142.376 97.0163 142.376 93.8132C142.376 90.6101 139.844 88.0135 136.719 88.0135C133.595 88.0135 131.062 90.6101 131.062 93.8132C131.062 97.0163 133.595 99.6129 136.719 99.6129Z" fill="url(#paint38_linear)"/>
</mask>
<g mask="url(#mask19)">
<path d="M136.719 99.6129C139.844 99.6129 142.376 97.0163 142.376 93.8132C142.376 90.6101 139.844 88.0135 136.719 88.0135C133.595 88.0135 131.062 90.6101 131.062 93.8132C131.062 97.0163 133.595 99.6129 136.719 99.6129Z" fill="url(#paint39_linear)"/>
</g>
<mask id="mask20" mask-type="alpha" maskUnits="userSpaceOnUse" x="0" y="117" width="12" height="12">
<path d="M5.65734 128.672C8.7818 128.672 11.3147 126.075 11.3147 122.872C11.3147 119.669 8.7818 117.072 5.65734 117.072C2.53287 117.072 0 119.669 0 122.872C0 126.075 2.53287 128.672 5.65734 128.672Z" fill="url(#paint40_linear)"/>
</mask>
<g mask="url(#mask20)">
<path d="M5.65734 128.672C8.7818 128.672 11.3147 126.075 11.3147 122.872C11.3147 119.669 8.7818 117.072 5.65734 117.072C2.53287 117.072 0 119.669 0 122.872C0 126.075 2.53287 128.672 5.65734 128.672Z" fill="url(#paint41_linear)"/>
</g>
<mask id="mask21" mask-type="alpha" maskUnits="userSpaceOnUse" x="32" y="117" width="13" height="12">
<path d="M38.4228 128.672C41.5473 128.672 44.0801 126.075 44.0801 122.872C44.0801 119.669 41.5473 117.072 38.4228 117.072C35.2983 117.072 32.7654 119.669 32.7654 122.872C32.7654 126.075 35.2983 128.672 38.4228 128.672Z" fill="url(#paint42_linear)"/>
</mask>
<g mask="url(#mask21)">
<path d="M38.4228 128.672C41.5473 128.672 44.0801 126.075 44.0801 122.872C44.0801 119.669 41.5473 117.072 38.4228 117.072C35.2983 117.072 32.7654 119.669 32.7654 122.872C32.7654 126.075 35.2983 128.672 38.4228 128.672Z" fill="url(#paint43_linear)"/>
</g>
<mask id="mask22" mask-type="alpha" maskUnits="userSpaceOnUse" x="65" y="117" width="12" height="12">
<path d="M71.1882 128.672C74.3127 128.672 76.8456 126.075 76.8456 122.872C76.8456 119.669 74.3127 117.072 71.1882 117.072C68.0638 117.072 65.5309 119.669 65.5309 122.872C65.5309 126.075 68.0638 128.672 71.1882 128.672Z" fill="url(#paint44_linear)"/>
</mask>
<g mask="url(#mask22)">
<path d="M71.1882 128.672C74.3127 128.672 76.8456 126.075 76.8456 122.872C76.8456 119.669 74.3127 117.072 71.1882 117.072C68.0638 117.072 65.5309 119.669 65.5309 122.872C65.5309 126.075 68.0638 128.672 71.1882 128.672Z" fill="url(#paint45_linear)"/>
</g>
<mask id="mask23" mask-type="alpha" maskUnits="userSpaceOnUse" x="98" y="117" width="12" height="12">
<path d="M103.954 128.672C107.078 128.672 109.611 126.075 109.611 122.872C109.611 119.669 107.078 117.072 103.954 117.072C100.829 117.072 98.2964 119.669 98.2964 122.872C98.2964 126.075 100.829 128.672 103.954 128.672Z" fill="url(#paint46_linear)"/>
</mask>
<g mask="url(#mask23)">
<path d="M103.954 128.672C107.078 128.672 109.611 126.075 109.611 122.872C109.611 119.669 107.078 117.072 103.954 117.072C100.829 117.072 98.2964 119.669 98.2964 122.872C98.2964 126.075 100.829 128.672 103.954 128.672Z" fill="url(#paint47_linear)"/>
</g>
<mask id="mask24" mask-type="alpha" maskUnits="userSpaceOnUse" x="131" y="117" width="12" height="12">
<path d="M136.719 128.672C139.844 128.672 142.376 126.075 142.376 122.872C142.376 119.669 139.844 117.072 136.719 117.072C133.595 117.072 131.062 119.669 131.062 122.872C131.062 126.075 133.595 128.672 136.719 128.672Z" fill="url(#paint48_linear)"/>
</mask>
<g mask="url(#mask24)">
<path d="M136.719 128.672C139.844 128.672 142.376 126.075 142.376 122.872C142.376 119.669 139.844 117.072 136.719 117.072C133.595 117.072 131.062 119.669 131.062 122.872C131.062 126.075 133.595 128.672 136.719 128.672Z" fill="url(#paint49_linear)"/>
</g>
</g>
<defs>
<linearGradient id="paint0_linear" x1="59.5081" y1="146.623" x2="-21.5633" y2="-54.1226" gradientUnits="userSpaceOnUse">
<stop/>
<stop offset="1" stop-color="white"/>
</linearGradient>
<linearGradient id="paint1_linear" x1="59.5081" y1="146.623" x2="-21.5633" y2="-54.1226" gradientUnits="userSpaceOnUse">
<stop stop-color="#97C3F9"/>
<stop offset="1" stop-color="#93C1F9"/>
</linearGradient>
<linearGradient id="paint2_linear" x1="87.8625" y1="135.173" x2="6.79115" y2="-65.5733" gradientUnits="userSpaceOnUse">
<stop/>
<stop offset="1" stop-color="white"/>
</linearGradient>
<linearGradient id="paint3_linear" x1="87.8625" y1="135.173" x2="6.79115" y2="-65.5733" gradientUnits="userSpaceOnUse">
<stop stop-color="#97C3F9"/>
<stop offset="1" stop-color="#93C1F9"/>
</linearGradient>
<linearGradient id="paint4_linear" x1="116.217" y1="123.722" x2="35.1455" y2="-77.024" gradientUnits="userSpaceOnUse">
<stop/>
<stop offset="1" stop-color="white"/>
</linearGradient>
<linearGradient id="paint5_linear" x1="116.217" y1="123.722" x2="35.1455" y2="-77.024" gradientUnits="userSpaceOnUse">
<stop stop-color="#97C3F9"/>
<stop offset="1" stop-color="#93C1F9"/>
</linearGradient>
<linearGradient id="paint6_linear" x1="144.571" y1="112.271" x2="63.4996" y2="-88.4753" gradientUnits="userSpaceOnUse">
<stop/>
<stop offset="1" stop-color="white"/>
</linearGradient>
<linearGradient id="paint7_linear" x1="144.571" y1="112.271" x2="63.4996" y2="-88.4753" gradientUnits="userSpaceOnUse">
<stop stop-color="#97C3F9"/>
<stop offset="1" stop-color="#93C1F9"/>
</linearGradient>
<linearGradient id="paint8_linear" x1="172.925" y1="100.82" x2="91.8538" y2="-99.9262" gradientUnits="userSpaceOnUse">
<stop/>
<stop offset="1" stop-color="white"/>
</linearGradient>
<linearGradient id="paint9_linear" x1="172.925" y1="100.82" x2="91.8538" y2="-99.9262" gradientUnits="userSpaceOnUse">
<stop stop-color="#97C3F9"/>
<stop offset="1" stop-color="#93C1F9"/>
</linearGradient>
<linearGradient id="paint10_linear" x1="49.8323" y1="150.53" x2="-31.2378" y2="-50.2141" gradientUnits="userSpaceOnUse">
<stop/>
<stop offset="1" stop-color="white"/>
</linearGradient>
<linearGradient id="paint11_linear" x1="49.8323" y1="150.53" x2="-31.2378" y2="-50.2141" gradientUnits="userSpaceOnUse">
<stop stop-color="#97C3F9"/>
<stop offset="1" stop-color="#93C1F9"/>
</linearGradient>
<linearGradient id="paint12_linear" x1="78.1865" y1="139.079" x2="-2.88354" y2="-61.6654" gradientUnits="userSpaceOnUse">
<stop/>
<stop offset="1" stop-color="white"/>
</linearGradient>
<linearGradient id="paint13_linear" x1="78.1865" y1="139.079" x2="-2.88354" y2="-61.6654" gradientUnits="userSpaceOnUse">
<stop stop-color="#97C3F9"/>
<stop offset="1" stop-color="#93C1F9"/>
</linearGradient>
<linearGradient id="paint14_linear" x1="106.541" y1="127.628" x2="25.4707" y2="-73.1161" gradientUnits="userSpaceOnUse">
<stop/>
<stop offset="1" stop-color="white"/>
</linearGradient>
<linearGradient id="paint15_linear" x1="106.541" y1="127.628" x2="25.4707" y2="-73.1161" gradientUnits="userSpaceOnUse">
<stop stop-color="#97C3F9"/>
<stop offset="1" stop-color="#93C1F9"/>
</linearGradient>
<linearGradient id="paint16_linear" x1="134.895" y1="116.177" x2="53.8249" y2="-84.567" gradientUnits="userSpaceOnUse">
<stop/>
<stop offset="1" stop-color="white"/>
</linearGradient>
<linearGradient id="paint17_linear" x1="134.895" y1="116.177" x2="53.8249" y2="-84.567" gradientUnits="userSpaceOnUse">
<stop stop-color="#97C3F9"/>
<stop offset="1" stop-color="#93C1F9"/>
</linearGradient>
<linearGradient id="paint18_linear" x1="163.249" y1="104.727" x2="82.1792" y2="-96.0177" gradientUnits="userSpaceOnUse">
<stop/>
<stop offset="1" stop-color="white"/>
</linearGradient>
<linearGradient id="paint19_linear" x1="163.249" y1="104.727" x2="82.1792" y2="-96.0177" gradientUnits="userSpaceOnUse">
<stop stop-color="#97C3F9"/>
<stop offset="1" stop-color="#93C1F9"/>
</linearGradient>
<linearGradient id="paint20_linear" x1="40.1561" y1="154.439" x2="-40.9153" y2="-46.3072" gradientUnits="userSpaceOnUse">
<stop/>
<stop offset="1" stop-color="white"/>
</linearGradient>
<linearGradient id="paint21_linear" x1="40.1561" y1="154.439" x2="-40.9153" y2="-46.3072" gradientUnits="userSpaceOnUse">
<stop stop-color="#97C3F9"/>
<stop offset="1" stop-color="#93C1F9"/>
</linearGradient>
<linearGradient id="paint22_linear" x1="68.5104" y1="142.988" x2="-12.561" y2="-57.7582" gradientUnits="userSpaceOnUse">
<stop/>
<stop offset="1" stop-color="white"/>
</linearGradient>
<linearGradient id="paint23_linear" x1="68.5104" y1="142.988" x2="-12.561" y2="-57.7582" gradientUnits="userSpaceOnUse">
<stop stop-color="#97C3F9"/>
<stop offset="1" stop-color="#93C1F9"/>
</linearGradient>
<linearGradient id="paint24_linear" x1="96.8646" y1="131.537" x2="15.7933" y2="-69.209" gradientUnits="userSpaceOnUse">
<stop/>
<stop offset="1" stop-color="white"/>
</linearGradient>
<linearGradient id="paint25_linear" x1="96.8646" y1="131.537" x2="15.7933" y2="-69.209" gradientUnits="userSpaceOnUse">
<stop stop-color="#97C3F9"/>
<stop offset="1" stop-color="#93C1F9"/>
</linearGradient>
<linearGradient id="paint26_linear" x1="125.219" y1="120.086" x2="44.1475" y2="-80.6601" gradientUnits="userSpaceOnUse">
<stop/>
<stop offset="1" stop-color="white"/>
</linearGradient>
<linearGradient id="paint27_linear" x1="125.219" y1="120.086" x2="44.1475" y2="-80.6601" gradientUnits="userSpaceOnUse">
<stop stop-color="#97C3F9"/>
<stop offset="1" stop-color="#93C1F9"/>
</linearGradient>
<linearGradient id="paint28_linear" x1="153.573" y1="108.635" x2="72.5017" y2="-92.111" gradientUnits="userSpaceOnUse">
<stop/>
<stop offset="1" stop-color="white"/>
</linearGradient>
<linearGradient id="paint29_linear" x1="153.573" y1="108.635" x2="72.5017" y2="-92.111" gradientUnits="userSpaceOnUse">
<stop stop-color="#97C3F9"/>
<stop offset="1" stop-color="#93C1F9"/>
</linearGradient>
<linearGradient id="paint30_linear" x1="30.4801" y1="158.346" x2="-50.5914" y2="-42.3996" gradientUnits="userSpaceOnUse">
<stop/>
<stop offset="1" stop-color="white"/>
</linearGradient>
<linearGradient id="paint31_linear" x1="30.4801" y1="158.346" x2="-50.5914" y2="-42.3996" gradientUnits="userSpaceOnUse">
<stop stop-color="#97C3F9"/>
<stop offset="1" stop-color="#93C1F9"/>
</linearGradient>
<linearGradient id="paint32_linear" x1="58.8344" y1="146.895" x2="-22.2371" y2="-53.8505" gradientUnits="userSpaceOnUse">
<stop/>
<stop offset="1" stop-color="white"/>
</linearGradient>
<linearGradient id="paint33_linear" x1="58.8344" y1="146.895" x2="-22.2371" y2="-53.8505" gradientUnits="userSpaceOnUse">
<stop stop-color="#97C3F9"/>
<stop offset="1" stop-color="#93C1F9"/>
</linearGradient>
<linearGradient id="paint34_linear" x1="87.1886" y1="135.444" x2="6.11725" y2="-65.3013" gradientUnits="userSpaceOnUse">
<stop/>
<stop offset="1" stop-color="white"/>
</linearGradient>
<linearGradient id="paint35_linear" x1="87.1886" y1="135.444" x2="6.11725" y2="-65.3013" gradientUnits="userSpaceOnUse">
<stop stop-color="#97C3F9"/>
<stop offset="1" stop-color="#93C1F9"/>
</linearGradient>
<linearGradient id="paint36_linear" x1="115.543" y1="123.994" x2="34.4715" y2="-76.7523" gradientUnits="userSpaceOnUse">
<stop/>
<stop offset="1" stop-color="white"/>
</linearGradient>
<linearGradient id="paint37_linear" x1="115.543" y1="123.994" x2="34.4715" y2="-76.7523" gradientUnits="userSpaceOnUse">
<stop stop-color="#97C3F9"/>
<stop offset="1" stop-color="#93C1F9"/>
</linearGradient>
<linearGradient id="paint38_linear" x1="143.897" y1="112.543" x2="62.8257" y2="-88.2033" gradientUnits="userSpaceOnUse">
<stop/>
<stop offset="1" stop-color="white"/>
</linearGradient>
<linearGradient id="paint39_linear" x1="143.897" y1="112.543" x2="62.8257" y2="-88.2033" gradientUnits="userSpaceOnUse">
<stop stop-color="#97C3F9"/>
<stop offset="1" stop-color="#93C1F9"/>
</linearGradient>
<linearGradient id="paint40_linear" x1="20.804" y1="162.254" x2="-60.2674" y2="-38.4919" gradientUnits="userSpaceOnUse">
<stop/>
<stop offset="1" stop-color="white"/>
</linearGradient>
<linearGradient id="paint41_linear" x1="20.804" y1="162.254" x2="-60.2674" y2="-38.4919" gradientUnits="userSpaceOnUse">
<stop stop-color="#97C3F9"/>
<stop offset="1" stop-color="#93C1F9"/>
</linearGradient>
<linearGradient id="paint42_linear" x1="49.1583" y1="150.803" x2="-31.9131" y2="-49.9428" gradientUnits="userSpaceOnUse">
<stop/>
<stop offset="1" stop-color="white"/>
</linearGradient>
<linearGradient id="paint43_linear" x1="49.1583" y1="150.803" x2="-31.9131" y2="-49.9428" gradientUnits="userSpaceOnUse">
<stop stop-color="#97C3F9"/>
<stop offset="1" stop-color="#93C1F9"/>
</linearGradient>
<linearGradient id="paint44_linear" x1="77.5126" y1="139.352" x2="-3.55877" y2="-61.3936" gradientUnits="userSpaceOnUse">
<stop/>
<stop offset="1" stop-color="white"/>
</linearGradient>
<linearGradient id="paint45_linear" x1="77.5126" y1="139.352" x2="-3.55877" y2="-61.3936" gradientUnits="userSpaceOnUse">
<stop stop-color="#97C3F9"/>
<stop offset="1" stop-color="#93C1F9"/>
</linearGradient>
<linearGradient id="paint46_linear" x1="105.867" y1="127.901" x2="24.7955" y2="-72.8446" gradientUnits="userSpaceOnUse">
<stop/>
<stop offset="1" stop-color="white"/>
</linearGradient>
<linearGradient id="paint47_linear" x1="105.867" y1="127.901" x2="24.7955" y2="-72.8446" gradientUnits="userSpaceOnUse">
<stop stop-color="#97C3F9"/>
<stop offset="1" stop-color="#93C1F9"/>
</linearGradient>
<linearGradient id="paint48_linear" x1="134.221" y1="116.45" x2="53.1497" y2="-84.2956" gradientUnits="userSpaceOnUse">
<stop/>
<stop offset="1" stop-color="white"/>
</linearGradient>
<linearGradient id="paint49_linear" x1="134.221" y1="116.45" x2="53.1497" y2="-84.2956" gradientUnits="userSpaceOnUse">
<stop stop-color="#97C3F9"/>
<stop offset="1" stop-color="#93C1F9"/>
</linearGradient>
</defs>
</svg>
